mastitorrents.com
 
http://mastitorrents.com/forums/index.php

Source: BD50

General

Format                           : Matroska
File size                        : 7.94 GiB
Duration                         : 2h 20mn



Video

Format                           : AVC
Format profile                   : High@L4.1
Format settings, ReFrames        : 4 frames
Duration                         : 2h 20mn
Bit rate                         : 6615 Kbps
Width                            : 1 920 pixels
Height                           : 864 pixels
Display aspect ratio             : 2.22
Frame rate                       : 24.000 fps
Bits/(Pixel*Frame)               : 0.166
Stream size                      : 6.31 GiB (79%)
Writing library                  : x264 core 114 r1913 5fd3dce


Audio

Format                           : DTS
Duration                         : 2h 25mn
Bit rate mode                    : Constant
Bit rate                         : 1510 Kbps
Channel(s)                       : 6 channels
Channel positions                : Front: L C R, Side: L R, LFE
Stream size                      : 1.48 GiB (19%)
Language                         : Hindi

Subtitle

Language                         : English
